<?xml version="1.0" encoding="utf-8"?>
<!-- Generator: Adobe Illustrator 27.5.0, SVG Export Plug-In . SVG Version: 6.00 Build 0)  -->
<svg version="1.1" id="Layer_1" xmlns="http://www.w3.org/2000/svg" xmlns:xlink="http://www.w3.org/1999/xlink" x="0px" y="0px"
	 viewBox="0 0 640 450" style="enable-background:new 0 0 640 450;" xml:space="preserve">
<g>
	<g>
		<g>
			<path style="fill:#A27CF5;" d="M536.244,252.047c0,5.359-4.344,9.706-9.693,9.706H313.664c-5.355,0-9.689-4.347-9.689-9.706
				V118.553c0-5.354,4.333-9.691,9.689-9.691h212.887c5.35,0,9.693,4.337,9.693,9.691V252.047z"/>
			<path style="fill:#8461E2;" d="M526.551,108.862H313.664c-5.355,0-9.689,4.337-9.689,9.691v18.011h232.269v-18.011
				C536.244,113.199,531.9,108.862,526.551,108.862z"/>
			<path style="fill:#F5F9FC;" d="M327.482,122.799c0,2.649-2.158,4.81-4.813,4.81c-2.664,0-4.815-2.16-4.815-4.81
				c0-2.665,2.151-4.819,4.815-4.819C325.324,117.98,327.482,120.134,327.482,122.799z"/>
			<path style="fill:#F5F9FC;" d="M339.645,122.799c0,2.649-2.15,4.81-4.818,4.81c-2.654,0-4.814-2.16-4.814-4.81
				c0-2.665,2.16-4.819,4.814-4.819C337.494,117.98,339.645,120.134,339.645,122.799z"/>
			<path style="fill:#F5F9FC;" d="M351.383,122.799c0,2.649-2.152,4.81-4.813,4.81c-2.658,0-4.813-2.16-4.813-4.81
				c0-2.665,2.154-4.819,4.813-4.819C349.23,117.98,351.383,120.134,351.383,122.799z"/>
		</g>
		<rect x="340.379" y="228.327" style="fill:#8461E2;" width="77.799" height="19.667"/>
		<rect x="428.42" y="228.327" style="fill:#8461E2;" width="77.801" height="19.667"/>
		<rect x="321.338" y="147.034" style="fill:#8461E2;" width="205.02" height="71.157"/>
	</g>
	<g>
		<rect x="103.828" y="109.097" style="fill:#E1E4F9;" width="180.762" height="233.797"/>
		<rect x="121.624" y="134.509" style="fill:#C4CAE8;" width="141.284" height="32.901"/>
		<rect x="121.624" y="257.891" style="fill:#C4CAE8;" width="142.074" height="32.904"/>
		<rect x="121.624" y="197.608" style="fill:#C4CAE8;" width="142.074" height="32.895"/>
	</g>
	<path style="fill:#D8D8D8;" d="M587.019,351.073c46.014,6.879,5.193,18.99-197.68,19.108
		C21.544,370.395,35.971,359.475,35.971,351.46c0-8.013,138.525-4.058,341.394-6.578
		C555.98,342.661,559.688,346.987,587.019,351.073z"/>
	<g>
		<path style="fill:#FFFFFF;" d="M285.742,288.215h0.467v1.667h0.819v0.392h-1.286V288.215z"/>
		<path style="fill:#FFFFFF;" d="M289.133,289.223c0,0.675-0.408,1.084-1.01,1.084c-0.609,0-0.968-0.461-0.968-1.047
			c0-0.616,0.394-1.078,1.002-1.078C288.787,288.182,289.133,288.655,289.133,289.223z M287.646,289.25
			c0,0.403,0.189,0.688,0.501,0.688c0.314,0,0.493-0.298,0.493-0.699c0-0.37-0.175-0.688-0.497-0.688
			C287.829,288.55,287.646,288.851,287.646,289.25z"/>
		<path style="fill:#FFFFFF;" d="M289.931,289.746l-0.147,0.528h-0.482l0.628-2.059h0.61l0.64,2.059h-0.5l-0.159-0.528H289.931z
			 M290.453,289.397l-0.128-0.437c-0.037-0.123-0.072-0.274-0.104-0.396h-0.007c-0.03,0.122-0.06,0.276-0.095,0.396l-0.121,0.437
			H290.453z"/>
		<path style="fill:#FFFFFF;" d="M291.517,288.243c0.17-0.027,0.394-0.043,0.63-0.043c0.391,0,0.643,0.07,0.842,0.22
			c0.215,0.159,0.349,0.412,0.349,0.775c0,0.396-0.144,0.666-0.343,0.834c-0.215,0.181-0.547,0.267-0.949,0.267
			c-0.242,0-0.412-0.016-0.529-0.032V288.243z M291.985,289.922c0.039,0.01,0.104,0.01,0.162,0.01
			c0.422,0.003,0.696-0.23,0.696-0.721c0.004-0.428-0.248-0.653-0.647-0.653c-0.104,0-0.171,0.009-0.211,0.018V289.922z"/>
		<path style="fill:#FFFFFF;" d="M294.173,288.215v2.059h-0.466v-2.059H294.173z"/>
		<path style="fill:#FFFFFF;" d="M294.637,290.274v-2.059h0.544l0.427,0.755c0.124,0.217,0.244,0.473,0.337,0.705h0.008
			c-0.031-0.271-0.041-0.55-0.041-0.857v-0.603h0.429v2.059h-0.49l-0.438-0.795c-0.124-0.219-0.257-0.485-0.358-0.727l-0.01,0.003
			c0.013,0.272,0.02,0.563,0.02,0.897v0.621H294.637z"/>
		<path style="fill:#FFFFFF;" d="M298.525,290.179c-0.143,0.049-0.414,0.116-0.687,0.116c-0.375,0-0.648-0.094-0.836-0.278
			c-0.19-0.176-0.294-0.446-0.291-0.748c0.003-0.685,0.501-1.074,1.176-1.074c0.267,0,0.47,0.052,0.57,0.1l-0.097,0.374
			c-0.112-0.05-0.252-0.09-0.479-0.09c-0.388,0-0.681,0.22-0.681,0.666c0,0.425,0.266,0.675,0.647,0.675
			c0.107,0,0.194-0.013,0.23-0.029v-0.432h-0.319v-0.364h0.766V290.179z"/>
		<path style="fill:#FFFFFF;" d="M298.872,290.027c0-0.166,0.113-0.285,0.274-0.285c0.161,0,0.272,0.116,0.272,0.285
			c0,0.161-0.111,0.28-0.276,0.28C298.985,290.307,298.872,290.188,298.872,290.027z"/>
		<path style="fill:#FFFFFF;" d="M299.667,290.027c0-0.166,0.113-0.285,0.273-0.285c0.163,0,0.271,0.116,0.271,0.285
			c0,0.161-0.107,0.28-0.273,0.28C299.781,290.307,299.667,290.188,299.667,290.027z"/>
		<path style="fill:#FFFFFF;" d="M300.46,290.027c0-0.166,0.114-0.285,0.276-0.285c0.161,0,0.272,0.116,0.272,0.285
			c0,0.161-0.111,0.28-0.275,0.28C300.574,290.307,300.46,290.188,300.46,290.027z"/>
	</g>
	<g>
		<polygon style="fill:#EA9D15;" points="561.084,322.357 370.709,322.357 364.885,222.624 566.906,222.624 		"/>
		<path style="fill:#EA9D15;" d="M471.813,236.048c0,12.5,12.813,22.637,28.623,22.637l64.867,0.575l2.578-45.842h-67.445
			C484.625,213.419,471.813,223.554,471.813,236.048z"/>
		<rect x="369.396" y="233.3" style="fill:#D7D4FF;" width="193" height="78.763"/>
		<polygon style="fill:#D7D4FF;" points="366.875,316.477 548.713,316.477 548.713,237.714 361.797,236.34 		"/>
		<rect x="369.217" y="228.7" style="fill:#FFFFFF;" width="189.287" height="78.76"/>
		
			<rect x="369.211" y="228.7" transform="matrix(0.9635 -0.2678 0.2678 0.9635 -54.8502 134.0175)" style="fill:#BCC0ED;" width="189.296" height="78.76"/>
		<rect x="370.564" y="237.714" style="fill:#FFFFFF;" width="180.518" height="78.763"/>
		<path style="fill:#FEC045;" d="M362.873,249.667l-1.076-18.415h70.344c14.588,0,26.713,7.935,29.328,18.415h112.068l-6.068,99.731
			h-198.59l-4.404-72.301l0,0l-0.004-0.073l-1.662-27.357H362.873z"/>
		<path style="fill:#EA9D15;" d="M361.797,231.251h10.969c-0.279,2.723-0.467,5.467-0.467,8.245
			c0,58.345,62.859,105.64,140.402,105.64c19.738,0,38.508-3.075,55.551-8.611l-0.783,12.873h-198.59l-4.404-72.301l-0.004-0.073
			l-1.662-27.357h0.064L361.797,231.251z"/>
	</g>
	<g>
		<path style="fill:#252956;" d="M471.352,331.94c0,5.744-4.996,10.402-11.148,10.402H205.702c-6.159,0-11.163-4.658-11.163-10.402
			V181.807c0-5.757,5.004-10.415,11.163-10.415h254.501c6.152,0,11.148,4.658,11.148,10.415V331.94z"/>
		<rect x="207.977" y="190.053" style="fill:#D3D5FD;" width="249.181" height="143.571"/>
		<polygon style="fill:#BCC0ED;" points="457.158,333.625 207.977,333.625 457.158,190.053 457.158,190.053 		"/>
		<rect x="165.215" y="333.625" style="fill:#1B2044;" width="332.55" height="17.448"/>
	</g>
	<g>
		<g>
			<path style="fill:#F5FEFF;" d="M223.542,283.023c0,4.795,4.139,8.671,9.238,8.671h202.91c5.102,0,9.234-3.876,9.234-8.671
				V163.578c0-4.795-4.133-8.678-9.234-8.678H232.78c-5.099,0-9.238,3.883-9.238,8.678V283.023z"/>
			<path style="fill:#BCC0ED;" d="M232.78,154.9h202.91c5.102,0,9.234,3.883,9.234,8.678v16.119H223.542v-16.119
				C223.542,158.783,227.681,154.9,232.78,154.9z"/>
			<path style="fill:#F5F9FC;" d="M422.523,167.373c0,2.377,2.059,4.303,4.584,4.303c2.537,0,4.59-1.926,4.59-4.303
				c0-2.384-2.053-4.314-4.59-4.314C424.582,163.059,422.523,164.989,422.523,167.373z"/>
			<path style="fill:#F5F9FC;" d="M410.93,167.373c0,2.377,2.051,4.303,4.594,4.303c2.531,0,4.586-1.926,4.586-4.303
				c0-2.384-2.055-4.314-4.586-4.314C412.98,163.059,410.93,164.989,410.93,167.373z"/>
			<path style="fill:#F5F9FC;" d="M399.74,167.373c0,2.377,2.055,4.303,4.588,4.303c2.531,0,4.584-1.926,4.584-4.303
				c0-2.384-2.053-4.314-4.584-4.314C401.795,163.059,399.74,164.989,399.74,167.373z"/>
		</g>
		<rect x="342.27" y="265.018" style="fill:#BCC0ED;" width="74.152" height="17.59"/>
		<rect x="258.352" y="265.018" style="fill:#BCC0ED;" width="74.158" height="17.59"/>
		<rect x="239.156" y="184.588" style="fill:#BCC0ED;" width="195.416" height="63.671"/>
	</g>
	<g>
		<path style="fill:#FC76B2;" d="M466.863,212.965c0,1.35-1.098,2.445-2.447,2.445H276.709c-1.35,0-2.444-1.096-2.444-2.445v-17.444
			c0-1.35,1.094-2.445,2.444-2.445h187.707c1.35,0,2.447,1.096,2.447,2.445V212.965z"/>
		<g>
			<path style="fill:#1B2044;" d="M294.274,202.752c0,3.6-2.919,6.514-6.52,6.514c-3.596,0-6.514-2.914-6.514-6.514
				c0-3.6,2.918-6.515,6.514-6.515C291.356,196.238,294.274,199.153,294.274,202.752z"/>
			<path style="fill:#1B2044;" d="M298.037,210.988c0.602,0.665,0.551,1.691-0.118,2.297l0,0c-0.66,0.601-1.686,0.552-2.293-0.111
				l-5.112-5.624c-0.603-0.665-0.559-1.691,0.107-2.295l0,0c0.661-0.605,1.688-0.557,2.294,0.111L298.037,210.988z"/>
			<path style="fill:#FC76B2;" d="M291.917,202.757c0,2.297-1.866,4.156-4.163,4.156c-2.293,0-4.161-1.859-4.161-4.156
				c0-2.302,1.867-4.163,4.161-4.163C290.052,198.594,291.917,200.456,291.917,202.757z"/>
		</g>
	</g>
	<g>
		<g>
			<rect x="350.014" y="300.833" style="fill:#A27CF5;" width="2.023" height="30.85"/>
			<path style="fill:#252956;" d="M363.017,272.377h-16.98c-2.652,0-4.805,2.151-4.805,4.805v23.651h26.59v-23.651
				C367.822,274.529,365.672,272.377,363.017,272.377z"/>
			<path style="fill:#191D3A;" d="M367.822,301.314c0,0.974-0.787,1.76-1.762,1.76h-37.029c-0.977,0-1.764-0.786-1.764-1.76l0,0
				c0-0.975,0.787-1.762,1.764-1.762h37.029C367.035,299.552,367.822,300.339,367.822,301.314L367.822,301.314z"/>
			<rect x="338.957" y="330.721" style="fill:#A27CF5;" width="23.385" height="2.903"/>
		</g>
		<path style="fill:#E28C71;" d="M346.225,271.2c-0.666-0.245-2.803-0.242-3.783,1.525c-1.311,2.37-1.387,7.885-4.596,9.802
			c-3.215,1.918-5.412,0.681-6.996,0.04c-1.582-0.639-1.91-1.637-2.873-1.903c-0.963-0.266-1.232,0.888,1.057,2.52
			c1.094,0.782,6.047,5.287,10.295,3.715C344.892,284.833,350.199,272.637,346.225,271.2z"/>
		<g>
			<g>
				<path style="fill:#F9B5A0;" d="M332.77,301.672c1.543,3.906,4.666,8.859,5.258,11.603c0.098,0.434,0.061,0.604-1.365,1.152
					c-1.428,0.545,0.088,1.25,2.631,1.003c2.535-0.253-0.254-11.859-2.152-17.252C335.486,293.464,330.988,297.139,332.77,301.672z"
					/>
				<path style="fill:#7585F8;" d="M340.244,314.163c0,0-2.117,1.096-3.582,0.265c0,0-2.459,0.542-0.82,1.066
					C337.48,316.022,340.566,316.326,340.244,314.163z"/>
			</g>
			<path style="fill:#C92F3B;" d="M347.848,289.119c0,0-16.684-3.495-18.361,1.082c-1.5,4.109,5.703,19.187,5.703,19.187
				s2.822,0.992,5.297-0.553c0,0-3.834-9.306-1.809-11.336c2.424-2.428,13.555,2.126,13.555,2.126l-2.697-8.058L347.848,289.119z"/>
		</g>
		<g>
			<path style="fill:#F9B5A0;" d="M344.457,310.439c2.488,3.377,6.787,7.359,8.07,9.859c0.201,0.395,0.209,0.569-1.025,1.46
				c-1.238,0.894,0.406,1.191,2.791,0.296c2.395-0.897-3.293-11.396-6.512-16.115C344.965,301.811,341.568,306.52,344.457,310.439z"
				/>
			<path style="fill:#7585F8;" d="M354.896,320.582c0,0-1.771,1.609-3.395,1.177c0,0-2.236,1.163-0.523,1.249
				C352.699,323.095,355.764,322.592,354.896,320.582z"/>
		</g>
		<path style="fill:#E03D51;" d="M347.758,292.433c0,0-8.99,2.918-9.434,7.768c-0.391,4.358,10.457,17.071,10.457,17.071
			s2.982,0.236,4.971-1.899c0,0-5.873-8.689-4.736-11.609c0.797-2.039,5.666-2.665,6.547-5.817c2.076-7.486-3.148-6.365-3.148-6.365
			L347.758,292.433z"/>
		<path style="fill:#EFBEBD;" d="M346.49,270.892c0,0-2.604-1.276-4.617,2.54c-2.01,3.814-2.357,5.758-2.357,5.758
			s2.002,1.99,6.398,2.468C345.914,281.658,350.404,272.168,346.49,270.892z"/>
		<path style="fill:#FCDCDA;" d="M356.75,292.112c0.002-0.005,0.014-0.005,0.02-0.009
			C356.77,292.103,356.756,292.103,356.75,292.112c-0.027-0.121-0.049-0.229-0.07-0.351l0,0c-0.729-4.634-1.383-7.582,0.531-11.936
			c2.752-6.24-2.121-7.582-5.076-8.466c-2.955-0.884-7.959-1.396-9.893,3.725c-1.396,3.691-2.012,8.925-0.939,12.896
			C342.517,292.482,358.326,297.26,356.75,292.112z"/>
		<path style="fill:#E67052;" d="M351.063,267.375c0,0-1.43,2.267,0.111,3.756c1.58,1.523-5.609,4.283-5.27,2.9
			c0.436-1.784,1.498-2.75,0.859-4.943L351.063,267.375z"/>
		<path style="fill:#F3B294;" d="M347.791,262.347c-1.717,1.267-4.16,7.46-2.715,9.069c0.637,0.692,3.629,0.358,5.809-2.229
			c0.891-1.058,2.094-3.105,1.191-5.43C351.666,262.707,349.787,260.875,347.791,262.347z"/>
		<path style="fill:#963734;" d="M346.119,262.926c-0.436,0.761-0.359,0.961,2.014,1.618c2.367,0.665,2.801,0.559,2.482,1.1
			c-0.928,1.604,0.836,1.479-0.289,3.393c-1.129,1.91,1.045,0.928,2.139-0.613c0.217-0.312,1.422-1.807,0.559-4.459
			C352.004,260.868,347.742,260.142,346.119,262.926z"/>
		<path style="fill:#AA3C3C;" d="M353.023,263.964c0.943,2.464-0.342,4.147-0.559,4.459c-0.816,1.145-2.23,2.01-2.424,1.547
			c-0.236-0.561,1.338-0.575,1.082-2.044c-0.268-1.469,0.709-1.661,0.639-2.923c-0.074-1.264-1.027-1.141-3.695-1.893
			c-1.086-0.301-1.24-0.757-1.061-1.188C348.943,260.418,352.025,261.374,353.023,263.964z"/>
		<path style="fill:#EFBEBD;" d="M356.68,291.761c0.021,0.121,0.043,0.229,0.07,0.351c0.006-0.009,0.02-0.009,0.02-0.009
			c-0.006,0.004-0.018,0.004-0.02,0.009c1.217,3.98-7.955,2.025-12.734-1.147c-0.322-1.54,3.719-0.27,5.65-0.853
			c4.447-1.353-7.377-6.428-4.922-6.585c2.648-0.169,5.777,1.599,5.643-2.242c-0.129-3.836,0.055-5.339,2.078-7.025
			c4.123-3.441,6.146,1.325,5.309,3.944c-0.131,0.504-0.301,1.038-0.563,1.621C355.297,284.179,355.951,287.127,356.68,291.761z"/>
		<path style="fill:#E28C71;" d="M355.48,273.679c-0.713,0.076-2.629,1.021-2.729,3.044c-0.129,2.702,2.236,7.686,0.203,10.823
			c-2.043,3.138-4.555,2.999-6.254,3.123c-1.705,0.123-2.443-0.624-3.424-0.441c-0.982,0.181-0.715,1.34,2.059,1.793
			c1.332,0.217,7.762,2.079,10.881-1.207C360.295,286.505,359.674,273.217,355.48,273.679z"/>
		<g>
			<rect x="305.712" y="290.281" style="fill:#A27CF5;" width="71.653" height="2.748"/>
			<polygon style="fill:#A27CF5;" points="306.402,333.625 303.504,333.625 313.97,290.561 316.664,291.223 			"/>
			<polygon style="fill:#A27CF5;" points="378.805,333.625 375.779,333.625 365.963,291.151 368.664,290.52 			"/>
		</g>
		<g>
			<rect x="316.804" y="288.918" style="fill:#FE88D4;" width="27.806" height="1.643"/>
			<polygon style="fill:#FE88D4;" points="333.781,290.556 313.984,290.556 311.071,276.174 329.873,276.174 			"/>
		</g>
		<path style="fill:#FCDCDA;" d="M355.801,273.081c0,0-2.891-0.245-3.381,4.04c-0.492,4.284-0.111,6.22-0.111,6.22
			s2.588,1.13,6.859-0.018C359.168,283.323,359.912,272.855,355.801,273.081z"/>
	</g>
	<g>
		<path style="fill:#FC76B2;" d="M173.216,301.371c0,1.949-1.579,3.532-3.525,3.532H70.988c-1.95,0-3.528-1.583-3.528-3.532v-48.555
			c0-1.953,1.578-3.53,3.528-3.53h98.703c1.946,0,3.525,1.577,3.525,3.53V301.371z"/>
		<path style="fill:#EA59A2;" d="M169.245,296.364c0,1.801-1.462,3.266-3.261,3.266h-91.29c-1.803,0-3.262-1.465-3.262-3.266v-44.91
			c0-1.802,1.459-3.262,3.262-3.262h91.29c1.798,0,3.261,1.46,3.261,3.262V296.364z"/>
		<path style="fill:#1B2044;" d="M67.538,219.169l5.564,63.393l7.522,59.715c0.652,6.156,5.846,10.825,12.033,10.825h56.328
			c6.224,0,11.438-4.719,12.044-10.916l7.046-59.624l5.072-63.501c0.804-8.176-5.62-15.268-13.837-15.268H81.365
			C73.105,203.794,66.665,210.952,67.538,219.169L67.538,219.169z"/>
		<path style="fill:#252956;" d="M71.926,221.644l5.102,60.193l6.898,56.701c0.598,5.845,5.357,10.276,11.029,10.276h51.637
			c5.706,0,10.485-4.482,11.042-10.367l6.458-56.61l4.648-60.296c0.738-7.764-5.147-14.496-12.685-14.496H84.603
			C77.031,207.045,71.126,213.842,71.926,221.644L71.926,221.644z"/>
		<path style="fill:#FCDCDA;" d="M158.346,270.736c0,2.499-2.003,4.522-4.474,4.522H86.804c-2.473,0-4.474-2.023-4.474-4.522
			v-42.904c0-2.495,2-4.515,4.474-4.515h67.068c2.47,0,4.474,2.02,4.474,4.515V270.736z"/>
		<path style="fill:#EFC0BF;" d="M158.346,270.736c0,2.499-2.003,4.522-4.474,4.522H86.804c-2.473,0-4.474-2.023-4.474-4.522
			v-42.904c0-2.495,2-4.515,4.474-4.515h67.068c2.47,0,4.474,2.02,4.474,4.515V270.736z"/>
		<path style="fill:#FCDCDA;" d="M155.993,268.272c0,2.367-1.941,4.283-4.335,4.283H86.665c-2.397,0-4.334-1.916-4.334-4.283
			v-40.678c0-2.363,1.938-4.277,4.334-4.277h64.993c2.394,0,4.335,1.914,4.335,4.277V268.272z"/>
		<path style="fill:#1B2044;" d="M158.475,213.062c0,1.375-1.108,2.487-2.483,2.487H82.257c-1.369,0-2.48-1.112-2.48-2.487l0,0
			c0-1.368,1.112-2.481,2.48-2.481h73.735C157.368,210.581,158.475,211.694,158.475,213.062L158.475,213.062z"/>
		<polygon style="fill:#FFCACB;" points="155.993,214.372 83.805,214.372 83.805,162.353 89.061,164.415 96.791,162.353 
			105.163,164.415 113.206,162.353 121.267,164.415 129.509,162.353 137.496,164.415 146.125,162.353 151.795,164.415 
			155.993,162.353 		"/>
		<polygon style="fill:#FFCACB;" points="155.993,214.372 83.805,214.372 83.805,162.353 89.061,164.415 96.791,162.353 
			105.163,164.415 113.206,162.353 121.267,164.415 129.509,162.353 137.496,164.415 146.125,162.353 151.795,164.415 
			155.993,162.353 		"/>
		<rect x="91.997" y="174.755" style="fill:#FC76B2;" width="56.736" height="2.883"/>
		<rect x="91.997" y="179.944" style="fill:#FC76B2;" width="56.736" height="2.886"/>
		<rect x="91.997" y="186.862" style="fill:#FC76B2;" width="56.736" height="2.887"/>
		<rect x="91.997" y="192.053" style="fill:#FC76B2;" width="56.736" height="2.884"/>
		<rect x="91.997" y="198.972" style="fill:#FC76B2;" width="56.736" height="2.885"/>
		<rect x="91.997" y="204.164" style="fill:#FC76B2;" width="56.736" height="2.882"/>
		<rect x="89.763" y="283.108" style="fill:#1B2044;" width="61.005" height="61.773"/>
		<g>
			<path style="fill:#FFCACB;" d="M107.865,295.536c0,1.458-1.179,2.633-2.629,2.633H95.148c-1.456,0-2.633-1.175-2.633-2.633
				v-3.512c0-1.447,1.177-2.631,2.633-2.631h10.087c1.451,0,2.629,1.184,2.629,2.631V295.536z"/>
			<path style="fill:#FFCACB;" d="M128.042,295.536c0,1.458-1.179,2.633-2.633,2.633h-10.084c-1.456,0-2.634-1.175-2.634-2.633
				v-3.512c0-1.447,1.179-2.631,2.634-2.631h10.084c1.455,0,2.633,1.184,2.633,2.631V295.536z"/>
			<path style="fill:#FFCACB;" d="M148.22,295.536c0,1.458-1.178,2.633-2.63,2.633H135.5c-1.453,0-2.636-1.175-2.636-2.633v-3.512
				c0-1.447,1.184-2.631,2.636-2.631h10.089c1.452,0,2.63,1.184,2.63,2.631V295.536z"/>
			<path style="fill:#FFCACB;" d="M107.865,309.574c0,1.45-1.179,2.632-2.629,2.632H95.148c-1.456,0-2.633-1.182-2.633-2.632v-3.512
				c0-1.454,1.177-2.634,2.633-2.634h10.087c1.451,0,2.629,1.18,2.629,2.634V309.574z"/>
			<path style="fill:#FFCACB;" d="M128.042,309.574c0,1.45-1.179,2.632-2.633,2.632h-10.084c-1.456,0-2.634-1.182-2.634-2.632
				v-3.512c0-1.454,1.179-2.634,2.634-2.634h10.084c1.455,0,2.633,1.18,2.633,2.634V309.574z"/>
			<path style="fill:#FFCACB;" d="M148.22,309.574c0,1.45-1.178,2.632-2.63,2.632H135.5c-1.453,0-2.636-1.182-2.636-2.632v-3.512
				c0-1.454,1.184-2.634,2.636-2.634h10.089c1.452,0,2.63,1.18,2.63,2.634V309.574z"/>
			<path style="fill:#FFCACB;" d="M107.865,322.733c0,1.448-1.179,2.631-2.629,2.631H95.148c-1.456,0-2.633-1.183-2.633-2.631
				v-3.512c0-1.454,1.177-2.632,2.633-2.632h10.087c1.451,0,2.629,1.178,2.629,2.632V322.733z"/>
			<path style="fill:#FFCACB;" d="M128.042,322.733c0,1.448-1.179,2.631-2.633,2.631h-10.084c-1.456,0-2.634-1.183-2.634-2.631
				v-3.512c0-1.454,1.179-2.632,2.634-2.632h10.084c1.455,0,2.633,1.178,2.633,2.632V322.733z"/>
			<path style="fill:#FFCACB;" d="M148.22,322.733c0,1.448-1.178,2.631-2.63,2.631H135.5c-1.453,0-2.636-1.183-2.636-2.631v-3.512
				c0-1.454,1.184-2.632,2.636-2.632h10.089c1.452,0,2.63,1.178,2.63,2.632V322.733z"/>
			<path style="fill:#FFCACB;" d="M107.865,335.967c0,1.449-1.179,2.63-2.629,2.63H95.148c-1.456,0-2.633-1.181-2.633-2.63v-3.508
				c0-1.459,1.177-2.636,2.633-2.636h10.087c1.451,0,2.629,1.177,2.629,2.636V335.967z"/>
			<path style="fill:#FFCACB;" d="M128.042,335.967c0,1.449-1.179,2.63-2.633,2.63h-10.084c-1.456,0-2.634-1.181-2.634-2.63v-3.508
				c0-1.459,1.179-2.636,2.634-2.636h10.084c1.455,0,2.633,1.177,2.633,2.636V335.967z"/>
			<path style="fill:#FFCACB;" d="M148.22,335.967c0,1.449-1.178,2.63-2.63,2.63H135.5c-1.453,0-2.636-1.181-2.636-2.63v-3.508
				c0-1.459,1.184-2.636,2.636-2.636h10.089c1.452,0,2.63,1.177,2.63,2.636V335.967z"/>
		</g>
		<path style="opacity:0.2;" d="M104.389,328.647c-9.115,0-17.866-1.542-26.029-4.351l2.265,17.98
			c0.652,6.156,5.846,10.825,12.033,10.825h56.328c6.224,0,11.438-4.719,12.044-10.916l5.028-42.557
			C151.376,317.355,129.205,328.647,104.389,328.647z"/>
		<path style="fill:#FFFFFF;" d="M140.292,247.678c0,11.691-9.475,21.167-21.166,21.167c-11.688,0-21.165-9.476-21.165-21.167
			c0-11.69,9.477-21.166,21.165-21.166C130.817,226.512,140.292,235.988,140.292,247.678z"/>
		<polygon style="fill:#F28F19;" points="106.993,245.141 117.022,261.293 123.315,261.293 131.261,234.581 124.636,234.581 
			119.127,251.736 112.077,241.805 		"/>
		<polygon style="opacity:0.2;" points="83.805,214.372 155.993,189.978 155.993,214.372 		"/>
	</g>
	<g>
		<path style="fill:#A27CF5;" d="M265.608,326.159c0,4.25-3.445,7.697-7.698,7.697h-62.059c-4.245,0-7.697-3.447-7.697-7.697
			V205.331c0-4.25,3.453-7.699,7.697-7.699h62.059c4.253,0,7.698,3.449,7.698,7.699V326.159z"/>
		<rect x="193.961" y="209.681" style="fill:#D3D5FD;" width="66.19" height="105.823"/>
		<path style="fill:#FFCACB;" d="M232.161,324.092c0,2.82-2.291,5.102-5.106,5.102c-2.819,0-5.106-2.281-5.106-5.102
			c0-2.821,2.287-5.108,5.106-5.108C229.87,318.984,232.161,321.271,232.161,324.092z"/>
		<g>
			<g>
				<path style="fill:#8461E2;" d="M255.234,249.191c0,0.87-0.71,1.575-1.582,1.575h-51.54c-0.871,0-1.579-0.705-1.579-1.575
					v-30.504c0-0.872,0.707-1.581,1.579-1.581h51.54c0.871,0,1.582,0.709,1.582,1.581V249.191z"/>
				<path style="fill:#F4A517;" d="M217.366,228.941c0,0.87-0.706,1.578-1.577,1.578h-8.415c-0.87,0-1.581-0.708-1.581-1.578v-5.177
					c0-0.871,0.711-1.576,1.581-1.576h8.415c0.871,0,1.577,0.705,1.577,1.576V228.941z"/>
			</g>
			<path style="fill:#FCDCDA;" d="M250.844,243.373c0,0.465-0.374,0.843-0.842,0.843h-43.363c-0.466,0-0.846-0.378-0.846-0.843l0,0
				c0-0.462,0.38-0.841,0.846-0.841h43.363C250.469,242.532,250.844,242.911,250.844,243.373L250.844,243.373z"/>
			<path style="fill:#FCDCDA;" d="M209.042,237.443c0,0.899-0.726,1.627-1.622,1.627l0,0c-0.9,0-1.628-0.727-1.628-1.627v-2.924
				c0-0.898,0.727-1.627,1.628-1.627l0,0c0.896,0,1.622,0.729,1.622,1.627V237.443z"/>
			<path style="fill:#FCDCDA;" d="M214.11,237.443c0,0.899-0.727,1.627-1.626,1.627l0,0c-0.898,0-1.624-0.727-1.624-1.627v-2.924
				c0-0.898,0.727-1.627,1.624-1.627l0,0c0.9,0,1.626,0.729,1.626,1.627V237.443z"/>
			<path style="fill:#FCDCDA;" d="M219.173,237.443c0,0.899-0.723,1.627-1.623,1.627l0,0c-0.896,0-1.622-0.727-1.622-1.627v-2.924
				c0-0.898,0.727-1.627,1.622-1.627l0,0c0.9,0,1.623,0.729,1.623,1.627V237.443z"/>
			<path style="fill:#FCDCDA;" d="M224.243,237.443c0,0.899-0.729,1.627-1.624,1.627l0,0c-0.896,0-1.622-0.727-1.622-1.627v-2.924
				c0-0.898,0.727-1.627,1.622-1.627l0,0c0.896,0,1.624,0.729,1.624,1.627V237.443z"/>
			<path style="fill:#FCDCDA;" d="M229.311,237.443c0,0.899-0.728,1.627-1.624,1.627l0,0c-0.896,0-1.623-0.727-1.623-1.627v-2.924
				c0-0.898,0.727-1.627,1.623-1.627l0,0c0.896,0,1.624,0.729,1.624,1.627V237.443z"/>
			<path style="fill:#FCDCDA;" d="M234.378,237.443c0,0.899-0.729,1.627-1.624,1.627l0,0c-0.894,0-1.626-0.727-1.626-1.627v-2.924
				c0-0.898,0.732-1.627,1.626-1.627l0,0c0.896,0,1.624,0.729,1.624,1.627V237.443z"/>
			<path style="fill:#FCDCDA;" d="M239.442,237.443c0,0.899-0.725,1.627-1.621,1.627l0,0c-0.899,0-1.626-0.727-1.626-1.627v-2.924
				c0-0.898,0.727-1.627,1.626-1.627l0,0c0.896,0,1.621,0.729,1.621,1.627V237.443z"/>
			<path style="fill:#FCDCDA;" d="M244.51,237.443c0,0.899-0.729,1.627-1.626,1.627l0,0c-0.894,0-1.622-0.727-1.622-1.627v-2.924
				c0-0.898,0.729-1.627,1.622-1.627l0,0c0.897,0,1.626,0.729,1.626,1.627V237.443z"/>
			<path style="fill:#FCDCDA;" d="M249.578,237.443c0,0.899-0.729,1.627-1.622,1.627l0,0c-0.898,0-1.626-0.727-1.626-1.627v-2.924
				c0-0.898,0.729-1.627,1.626-1.627l0,0c0.893,0,1.622,0.729,1.622,1.627V237.443z"/>
		</g>
		<polygon style="opacity:0.2;" points="260.151,315.504 193.961,315.504 260.151,209.681 260.151,209.681 		"/>
		<path style="fill:#FCDCDA;" d="M255.234,257.538c0,1.007-0.82,1.822-1.821,1.822h-51.057c-1.004,0-1.822-0.815-1.822-1.822l0,0
			c0-1.008,0.818-1.82,1.822-1.82h51.057C254.414,255.717,255.234,256.53,255.234,257.538L255.234,257.538z"/>
		<path style="fill:#FCDCDA;" d="M255.234,265.86c0,1.008-0.82,1.824-1.821,1.824h-51.057c-1.004,0-1.822-0.816-1.822-1.824l0,0
			c0-1.003,0.818-1.818,1.822-1.818h51.057C254.414,264.042,255.234,264.857,255.234,265.86L255.234,265.86z"/>
		<path style="fill:#FCDCDA;" d="M255.234,298.45c0,1.007-0.82,1.823-1.821,1.823h-51.057c-1.004,0-1.822-0.816-1.822-1.823l0,0
			c0-1.006,0.818-1.819,1.822-1.819h51.057C254.414,296.63,255.234,297.444,255.234,298.45L255.234,298.45z"/>
		<path style="fill:#FCDCDA;" d="M255.234,306.774c0,1.007-0.82,1.819-1.821,1.819h-51.057c-1.004,0-1.822-0.813-1.822-1.819l0,0
			c0-1.005,0.818-1.82,1.822-1.82h51.057C254.414,304.954,255.234,305.769,255.234,306.774L255.234,306.774z"/>
		<path style="fill:#1B2044;" d="M245.165,203.553c0,0.835-0.678,1.514-1.509,1.514h-33.104c-0.833,0-1.511-0.679-1.511-1.514l0,0
			c0-0.832,0.678-1.509,1.511-1.509h33.104C244.488,202.044,245.165,202.721,245.165,203.553L245.165,203.553z"/>
		<path style="opacity:0.2;" d="M209.903,224.064c0,0.47-0.38,0.851-0.847,0.851h-1.018c-0.47,0-0.848-0.381-0.848-0.851l0,0
			c0-0.467,0.378-0.848,0.848-0.848h1.018C209.522,223.216,209.903,223.597,209.903,224.064L209.903,224.064z"/>
		<path style="opacity:0.2;" d="M213.295,224.064c0,0.47-0.378,0.851-0.85,0.851h-1.018c-0.467,0-0.845-0.381-0.845-0.851l0,0
			c0-0.467,0.378-0.848,0.845-0.848h1.018C212.917,223.216,213.295,223.597,213.295,224.064L213.295,224.064z"/>
		<path style="opacity:0.2;" d="M209.903,226.434c0,0.471-0.38,0.851-0.847,0.851h-1.018c-0.47,0-0.848-0.38-0.848-0.851l0,0
			c0-0.465,0.378-0.847,0.848-0.847h1.018C209.522,225.587,209.903,225.969,209.903,226.434L209.903,226.434z"/>
		<path style="opacity:0.2;" d="M213.295,226.434c0,0.471-0.378,0.851-0.85,0.851h-1.018c-0.467,0-0.845-0.38-0.845-0.851l0,0
			c0-0.465,0.378-0.847,0.845-0.847h1.018C212.917,225.587,213.295,225.969,213.295,226.434L213.295,226.434z"/>
		<path style="opacity:0.2;" d="M209.903,229.011c0,0.47-0.38,0.85-0.847,0.85h-1.018c-0.47,0-0.848-0.38-0.848-0.85l0,0
			c0-0.467,0.378-0.848,0.848-0.848h1.018C209.522,228.164,209.903,228.544,209.903,229.011L209.903,229.011z"/>
		<path style="opacity:0.2;" d="M213.295,229.011c0,0.47-0.378,0.85-0.85,0.85h-1.018c-0.467,0-0.845-0.38-0.845-0.85l0,0
			c0-0.467,0.378-0.848,0.845-0.848h1.018C212.917,228.164,213.295,228.544,213.295,229.011L213.295,229.011z"/>
		<path style="opacity:0.2;" d="M216.423,224.064c0,0.47-0.378,0.851-0.849,0.851h-1.018c-0.468,0-0.844-0.381-0.844-0.851l0,0
			c0-0.467,0.376-0.848,0.844-0.848h1.018C216.045,223.216,216.423,223.597,216.423,224.064L216.423,224.064z"/>
		<path style="opacity:0.2;" d="M216.423,226.434c0,0.471-0.378,0.851-0.849,0.851h-1.018c-0.468,0-0.844-0.38-0.844-0.851l0,0
			c0-0.465,0.376-0.847,0.844-0.847h1.018C216.045,225.587,216.423,225.969,216.423,226.434L216.423,226.434z"/>
		<path style="opacity:0.2;" d="M216.423,229.011c0,0.47-0.378,0.85-0.849,0.85h-1.018c-0.468,0-0.844-0.38-0.844-0.85l0,0
			c0-0.467,0.376-0.848,0.844-0.848h1.018C216.045,228.164,216.423,228.544,216.423,229.011L216.423,229.011z"/>
	</g>
	<g>
		<path style="fill:#ED64A9;" d="M66.226,352.293c0,1.298-4.563,2.342-10.194,2.342c-5.629,0-10.191-1.044-10.191-2.342
			c0-1.29,4.562-2.336,10.191-2.336C61.663,349.957,66.226,351.003,66.226,352.293z"/>
		<polygon style="fill:#ED64A9;" points="42.442,331.632 45.841,352.293 66.226,352.293 69.623,331.632 		"/>
		<path style="fill:#FC76B2;" d="M69.623,331.632c0,1.726-6.087,3.121-13.591,3.121c-7.501,0-13.59-1.395-13.59-3.121
			c0-1.721,6.089-3.117,13.59-3.117C63.536,328.515,69.623,329.912,69.623,331.632z"/>
		<path style="fill:#B5D91B;" d="M66.52,331.632c0,1.229-4.34,2.23-9.698,2.23c-5.356,0-9.704-1.001-9.704-2.23
			c0-1.226,4.348-2.223,9.704-2.223C62.179,329.41,66.52,330.407,66.52,331.632z"/>
		<path style="fill:#B5D91B;" d="M51.254,332.747c0,0-8.135-8.597-5.543-14.961c2.59-6.367,3.529-20.462-1.125-27.658
			c-4.653-7.199-1.342-19.061,6.792-12.417c8.136,6.643,9.927,25.291,5.638,30.953c-4.283,5.665-6.021,20.838-3.056,23.818
			L51.254,332.747z"/>
		<path style="fill:#94C207;" d="M56.032,331.632c0,0-8.196-10.171-3.942-16.689c4.253-6.52-4.712-17.171,2.696-20.661
			c7.406-3.499,13.255,12.709,8.182,20.186c-5.063,7.467-6.3,16.69-5.097,17.164H56.032z"/>
		<path style="fill:#B5D91B;" d="M82.425,298.454c0,0,3.042-6.328-2.28-10.859c-5.321-4.54-14.37-5.211-14.266,2.069
			c0.104,7.272,3.077,11.975,0.508,16.349c-2.574,4.374-4.26,9.213-4.511,13.386c-0.253,4.171-4.178,12.415-5.919,12.424
			l1.653,1.794c0,0,13.839-12.242,13.367-18.677C70.505,308.507,82.843,303.599,82.425,298.454z"/>
	</g>
	<g>
		<g>
			<path style="fill:#8461E2;" d="M473.16,312.933c0.061,3.684-2.498,6.716-5.701,6.759l0,0c-3.205,0.051-5.846-2.9-5.902-6.584
				l-0.393-26.27c-0.055-3.681,2.494-6.714,5.703-6.758l0,0c3.205-0.05,5.846,2.9,5.906,6.585L473.16,312.933z"/>
			<path style="fill:#252956;" d="M461.498,308.919l0.059,4.189c0.057,3.684,2.697,6.635,5.902,6.584
				c3.203-0.043,5.762-3.075,5.701-6.759l-0.055-3.911c-1.697,0.577-3.508,0.901-5.398,0.935
				C465.527,309.989,463.432,309.619,461.498,308.919z"/>
			<path style="fill:#252956;" d="M493.017,275.76c0,5.55-4.184,10.053-9.342,10.053c-5.156,0-9.338-4.503-9.338-10.053
				c0-5.547,4.182-10.046,9.338-10.046C488.834,265.714,493.017,270.213,493.017,275.76z"/>
			<path style="fill:#8461E2;" d="M485.648,275.664c0.133,8.75-2.742,19.221-14.727,16.066c-7.988-2.108-15.066-6.867-15.193-15.621
				c-0.137-8.748,6.787-13.752,14.723-16.063C483.842,256.142,485.521,266.913,485.648,275.664z"/>
			<path style="fill:#6F54D1;" d="M474.279,281.68c-7.801-2.061-14.715-6.654-15.162-15.016c-2.148,2.487-3.449,5.605-3.389,9.444
				c0.127,8.754,7.205,13.513,15.193,15.621c10.494,2.764,14.006-4.933,14.625-12.766
				C483.289,281.727,479.728,283.116,474.279,281.68z"/>
		</g>
		<g>
			<path style="fill:#FC76B2;" d="M464.896,360.012h62.938c9.777,0,17.703-7.926,17.703-17.702v-45.238h-98.344v45.238
				C447.193,352.086,455.123,360.012,464.896,360.012z"/>
			<path style="fill:#E85DA3;" d="M532.279,308.696c0,2.509-2.033,4.547-4.541,4.547h-62.742c-2.51,0-4.547-2.038-4.547-4.547l0,0
				c0-2.511,2.037-4.546,4.547-4.546h62.742C530.246,304.15,532.279,306.185,532.279,308.696L532.279,308.696z"/>
			<path style="opacity:0.2;" d="M536.229,297.072c0.916,2.994,1.412,6.106,1.412,9.301c0,23.44-25.959,42.447-57.992,42.447
				c-12.022,0-23.191-2.682-32.455-7.265v0.755c0,9.776,7.93,17.702,17.703,17.702h62.938c9.777,0,17.703-7.926,17.703-17.702
				v-45.238H536.229z"/>
		</g>
		<g>
			<g>
				<path style="fill:#FFAA83;" d="M529.814,301.925c0,0-2.678-3.224-2.682-1.903c-0.01,1.292,0.658,0.939,1.73,2.688
					L529.814,301.925z"/>
				<path style="fill:#FCDCDA;" d="M544.904,311.403c0.568,0.406,1.688,2.085,0.268,2.763c-2.26,1.087-8.711-0.815-10.273-1.784
					c-1.551-0.973-6.246-9.852-6.246-9.852s0.344-1.013,1.352-0.721l7.463,7.132C537.467,308.941,542.935,309.974,544.904,311.403z"
					/>
			</g>
			<g>
				<path style="fill:#8461E2;" d="M518.326,314.507c-0.055,3.683,2.498,6.715,5.703,6.759l0,0c3.203,0.05,5.846-2.899,5.9-6.584
					l0.396-26.27c0.053-3.683-2.5-6.713-5.709-6.758l0,0c-3.201-0.051-5.844,2.9-5.898,6.584L518.326,314.507z"/>
				<path style="fill:#252956;" d="M529.992,310.494l-0.063,4.189c-0.055,3.685-2.697,6.634-5.9,6.584
					c-3.205-0.044-5.758-3.076-5.703-6.759l0.059-3.91c1.695,0.573,3.508,0.9,5.398,0.935
					C525.963,311.562,528.055,311.192,529.992,310.494z"/>
				<path style="fill:#252956;" d="M498.473,277.335c0,5.545,4.182,10.05,9.344,10.05c5.152,0,9.338-4.505,9.338-10.05
					c0-5.55-4.186-10.047-9.338-10.047C502.654,267.289,498.473,271.786,498.473,277.335z"/>
				<path style="fill:#8461E2;" d="M505.838,277.237c-0.133,8.751,2.748,19.223,14.723,16.065
					c7.994-2.106,15.072-6.866,15.205-15.619c0.127-8.749-6.793-13.752-14.729-16.066
					C507.648,257.714,505.969,268.487,505.838,277.237z"/>
				<path style="fill:#6F54D1;" d="M517.211,283.254c7.801-2.061,14.715-6.653,15.16-15.016c2.15,2.487,3.449,5.606,3.395,9.444
					c-0.133,8.753-7.211,13.513-15.205,15.619c-10.492,2.766-13.998-4.932-14.617-12.765
					C508.193,283.301,511.758,284.69,517.211,283.254z"/>
			</g>
			<g>
				<path style="fill:#F9B5A0;" d="M539.256,348.789c2.041,3.681,5.766,8.157,6.725,10.822c0.156,0.42,0.143,0.599-1.164,1.377
					c-1.301,0.78,0.264,1.247,2.693,0.586c2.422-0.664-1.906-11.889-4.502-17.009C540.742,340.087,536.893,344.512,539.256,348.789z
					"/>
				<path style="fill:#6E86CC;" d="M548.258,360.147c0,0-1.9,1.441-3.441,0.841c0,0-2.301,0.95-0.645,1.21
					C545.828,362.46,548.875,362.274,548.258,360.147z"/>
			</g>
			<path style="fill:#F28F19;" d="M534.844,325.985c0,0-0.391,2.571-0.17,4.838c0.773,7.699,1.088,8.568,1.699,10.616
				c1.041,3.489,3.004,10.289,7.584,15.36c0.438,0.484,4.133-0.296,4.027-1.103c-0.775-5.929-2.453-6.497-3.889-13.175
				c-0.383-1.813,0.06-5.208,0.082-7.411c0.072-6.252-0.512-7.081-2.34-9.664L534.844,325.985z"/>
			<g>
				<path style="fill:#F9B5A0;" d="M527.826,348.716c0.85,4.122,3.076,9.505,3.199,12.33c0.021,0.455-0.043,0.615-1.523,0.974
					c-1.475,0.359-0.119,1.27,2.398,1.357c2.508,0.092,1.713-11.914,0.756-17.573C531.826,340.853,526.836,343.935,527.826,348.716z
					"/>
				<path style="fill:#6E86CC;" d="M533.037,362.235c0,0-2.244,0.815-3.535-0.215c0,0-2.48,0.222-0.979,0.961
					C530.035,363.727,532.992,364.452,533.037,362.235z"/>
			</g>
			<path style="fill:#F4A517;" d="M530.389,325.63c0,0-1.139,2.342-1.602,4.571c-1.555,7.581-1.512,8.502-1.533,10.642
				c-0.045,3.64-0.195,10.72,2.672,16.92c0.273,0.598,3.887,0.967,4.023,0.162c1.021-5.892-0.258-6.949,0.359-13.752
				c0.164-1.848,1.604-4.958,2.279-7.052c1.924-5.951,1.617-6.914,0.637-9.923L530.389,325.63z"/>
			<path style="fill:#FCDCDA;" d="M535.656,311.205c-2.039,1.217-4.016,4.497-6.045,15.721c-0.449,2.464,14.055,4.675,14.387,2.191
				c0.883-6.618,0.053-9.475-1.191-15.663C542.471,311.77,539.695,308.788,535.656,311.205z"/>
			<g>
				<path style="fill:#FFAA83;" d="M520.891,307.502c0,0-1.516-3.445-2.006-2.244c-0.484,1.2-0.154,1.629,1.199,3.175
					L520.891,307.502z"/>
				<path style="fill:#FCDCDA;" d="M537.369,314.327c0.629,0.306,2.02,1.773,0.727,2.68c-2.049,1.451-8.68,0.484-10.428-0.054
					c-5.023-1.546-7.822-8.666-7.822-8.666s0.168-1.051,1.213-0.932c0,0,6.094,5.004,8.56,5.785
					C531.486,313.732,535.191,313.247,537.369,314.327z"/>
			</g>
			<path style="fill:#AA3C3C;" d="M538.258,300.455c-1.59,0.037-3.672,1.112-4.002,4.182c-0.328,3.066-0.42,3.121-1.58,4.135
				c-2.975,2.622,3.225,4.524,0.689,6.98c-10.889,10.56,10.93,11.322,10.377,8.424c-1.068-5.573,2.596-3.903,2.295-8.017
				c-0.123-1.633,2.422-3.163-0.465-5.521c-0.951-0.778,1.281-4.189-1.135-5.161C542.027,304.508,544.396,300.314,538.258,300.455z"
				/>
			<path style="fill:#F28F19;" d="M531.662,328.671c0,0-0.549,4.919-3.654,5.479c0,0,0.51-4.625,1.66-6.826
				C529.668,327.324,529.938,328.114,531.662,328.671z"/>
			<path style="fill:#F4A517;" d="M543.367,331.403c0,0-1.453,0.946-4.047,0.388c0,0-0.281,3.801,2.26,3.751
				C542.709,335.516,544.178,335.11,543.367,331.403z"/>
			<path style="fill:#F28F19;" d="M535.969,331.427c0,0-1.545,0.794-4.064-0.03c0,0-0.67,3.752,1.865,3.962
				C534.893,335.451,536.396,335.197,535.969,331.427z"/>
		</g>
		<path style="fill:#A27CF5;" d="M527.738,302.445c0,0.943-0.764,1.705-1.707,1.705l0,0c-0.941,0-1.707-0.762-1.707-1.705v-5.224
			c0-0.943,0.766-1.708,1.707-1.708l0,0c0.943,0,1.707,0.765,1.707,1.708V302.445z"/>
	</g>
	<g>
		<path style="fill:#F4A517;" d="M231.563,120.433l4.893-6.481c-13.341-11.062-33.626-18.135-56.378-18.135
			c-24.355,0-45.898,8.117-59.096,20.559l5.019,5.878c13.319-10.018,32.6-16.343,54.078-16.343
			C200.222,105.911,218.393,111.49,231.563,120.433z"/>
		<path style="fill:#F4A517;" d="M218.506,137.753l5.285-7.004c-11.569-7.599-26.724-12.224-43.325-12.224
			c-17.806,0-33.926,5.302-45.759,13.909l5.549,6.496c11.124-6.45,25.054-10.305,40.21-10.305
			C194.656,128.626,207.762,132.03,218.506,137.753z"/>
		<path style="fill:#F4A517;" d="M204.428,156.453l5.463-7.263c-8.527-5.004-18.685-7.94-29.612-7.94
			c-11.386,0-21.965,3.172-30.703,8.583l5.903,6.916c7.435-3.455,15.868-5.413,24.799-5.413
			C188.957,151.335,197.146,153.182,204.428,156.453z"/>
		<path style="fill:#F4A517;" d="M190.675,171.214c0,5.043-4.651,9.149-10.389,9.149c-5.731,0-10.391-4.107-10.391-9.149
			c0-5.051,4.66-9.153,10.391-9.153C186.024,162.061,190.675,166.164,190.675,171.214z"/>
	</g>
	<g>
		<path style="fill:#EE9D7F;" d="M182.41,272.802c0,0-1.416-1.384-3.107,0.191c-1.968,1.837-3.162,8.217-6.521,9.842
			c-3.364,1.626-5.453,0.218-6.973-0.547c-1.526-0.766-1.775-1.78-2.708-2.128c-0.935-0.347-1.304,0.78,0.846,2.582
			c1.026,0.864,5.593,5.74,9.951,4.538C179.613,285.708,185.197,274.75,182.41,272.802z"/>
		<path style="fill:#AA3C3C;" d="M184.163,263.768c-2.197,1.752-3.831,5.358-9.934,5.315c-6.109-0.058,2.674,9.088,8.552,8.919
			c5.876-0.169,12.076-1.35,10.506-9.721C192.06,261.723,186.324,262.055,184.163,263.768z"/>
		<path style="fill:#AA3C3C;" d="M183.986,266.197c0,0-3.064,5.255-5.086,5.636c-2.028,0.385,13.485,5.986,13.485,5.986
			l-3.753-9.232L183.986,266.197z"/>
		<path style="fill:#EAC2C1;" d="M183.843,271.625c0,0,2.234,0.648,0.624,4.598c-1.61,3.957-2.855,5.454-2.855,5.454
			s-2.785-0.247-5.948-3.269C175.664,278.408,180.383,269.471,183.843,271.625z"/>
		<g>
			<path style="fill:#EE9D7F;" d="M182.007,321.477c-0.271-0.498-2.259-2.262-3.463,0.48c-1.206,2.741,0.425,10.132,1.046,10.732
				c0.623,0.599,1.822-0.608,1.822-0.608S183.633,324.516,182.007,321.477z"/>
			<path style="fill:#EE9D7F;" d="M181.478,331.824c0,0-0.177,0.92-0.508,1.47c-0.396,0.676-4.01,0.804-3.126,0.02
				c0.73-0.647,1.962-0.689,1.92-1.001C179.73,332.011,181.478,331.824,181.478,331.824z"/>
		</g>
		<g>
			<path style="fill:#EE9D7F;" d="M194.717,320.551c-0.477-0.389-3.092-1.382-3.015,1.774c0.079,3.148,4.828,9.813,5.67,10.167
				c0.848,0.354,1.435-1.285,1.435-1.285S197.566,322.927,194.717,320.551z"/>
			<path style="fill:#EE9D7F;" d="M198.756,330.932c0,0,0.234,0.973,0.167,1.636c-0.071,0.814-3.387,2.296-2.902,1.192
				c0.399-0.91,1.527-1.418,1.351-1.705C197.204,331.771,198.756,330.932,198.756,330.932z"/>
		</g>
		<path style="fill:#F4A517;" d="M177.67,290.049c5.281,3.873,12.838,3.297,15.706,2.685c3.525,7.656,4.545,32.19,5.077,35.752
			c-2.319,0.844-3.087,1.025-3.759,1.025c-10.576-16.73-9.933-25.339-10.056-27.334c-0.425,2.3,1.001,16.237-1.417,27.334
			c-0.811,0.571-3.265,1.318-5.02,0c-0.086-0.713-3.307-23.999-3.357-24.653C174.362,298.085,176.469,292.618,177.67,290.049z"/>
		<path style="fill:#EE9D7F;" d="M180.948,275.143c0.902-4.365,5.213-4.298,9.399-2.243c2.829,1.389,6.328,2.484,3.585,8.395
			c-2.24,4.831-3.558,6.098-1.438,10.751c0.281,0.61-0.186-0.74,0,0c-2.932,1.054-4.54-0.41-7.907-0.483
			c-2.502-0.053-4.139-0.992-6.392-1.675c1.02-3.13,0.931-0.023,0.999-0.205C181.437,284.026,180.183,278.835,180.948,275.143z"/>
		<path style="fill:#FCDCDA;" d="M177.758,289.712c1.365-3.64,1.809-4.216,0.715-6.412c-2.455-4.916,4.154-11.89,4.154-11.89
			l2.313-0.122c-4.602,4.899-4.196,7.195-2.738,7.549c4.857,1.165,8.145-5.938,8.145-5.938s4.968,1.923,4.968,3.753
			c0,1.627-1.78,5.818-1.78,5.818c-1.136,1.744-2.427,4.518-1.597,7.689c0.007,0.018,1.438,2.574,1.438,2.574
			C188.749,294.461,177.685,292.784,177.758,289.712z"/>
		<g>
			<path style="fill:#E67052;" d="M188.632,268.586c0,0-0.82,3.075,0.178,4.557c0.631,0.939-4.609,3.148-4.484,1.898
				c0.174-1.615,1.119-2.587,0.108-4.419L188.632,268.586z"/>
		</g>
		<g>
			<path style="fill:#EE9D7F;" d="M185.122,264.027c-1.376,1.374-2.73,7.281-1.207,8.531c0.665,0.541,3.308-0.171,4.924-2.793
				c0.669-1.076,1.462-3.083,0.333-5.052C188.665,263.826,186.722,262.428,185.122,264.027z"/>
		</g>
		<g>
			<path style="fill:#AA3C3C;" d="M184.045,265.059c-0.114,0.845-0.129,1.338,1.68,1.111c2.223-0.286,1.889,1.383,1.682,1.953
				c-0.616,1.676,1.977-0.043,1.223,1.957c-0.758,2.002,1.644-0.444,1.844-0.744c0.205-0.304,0.91-1.62-0.423-4.443
				C188.714,262.064,184.408,262.464,184.045,265.059z"/>
		</g>
		<path style="fill:#6E86CC;" d="M198.937,331.536c0,0,0.736,1.265-0.813,2.316c-1.547,1.052-2.594,1.058-2.546,0.303
			c0.046-0.753,1.27-1.611,1.27-1.611S198.747,332.991,198.937,331.536z"/>
		<path style="fill:#6E86CC;" d="M181.478,332.523c0,0,0.106,1.462-1.741,1.733c-1.852,0.271-2.796-0.18-2.428-0.839
			c0.369-0.658,1.852-0.895,1.852-0.895S180.668,333.751,181.478,332.523z"/>
		<path style="fill:#F28F19;" d="M193.376,292.734c0,0-10.337,1.672-15.618-3.021L176.84,292c0,0,4.765,5.53,17.401,3.1
			L193.376,292.734z"/>
		<path style="fill:#F28F19;" d="M189.751,295.669c0,0,1.035,8.27,6.319,8.457c0,0-1.117-7.079-1.83-9.026
			C194.241,295.1,192.909,295.556,189.751,295.669z"/>
		<path style="fill:#F28F19;" d="M179.101,293.668c0,0-1.235,6.822-4.235,6.946c0,0,0.215-5.703,1.974-8.614
			C176.84,292,177.575,292.948,179.101,293.668z"/>
		<path style="fill:#F28F19;" d="M184.923,292.716l-0.286,9.461c0,0-2.813-0.035-1.816-7.077l1.542,0.299l0.011-2.776
			L184.923,292.716z"/>
		<path style="fill:#EE9D7F;" d="M194.624,275.654c0,0-1.603-1.164-3.044,0.645c-1.676,2.103-1.92,8.589-5.006,10.691
			c-3.082,2.103-5.357,1.018-6.974,0.483c-1.624-0.533-2.019-1.502-2.993-1.706c-0.975-0.206-1.175,0.962,1.215,2.431
			c1.144,0.703,6.377,4.854,10.512,3.025C193.756,288.828,197.67,277.169,194.624,275.654z"/>
		<path style="fill:#EAC2C1;" d="M194.927,275.286c1.998,1.042,1.841,5.333-0.752,8.998l-5.153-2.3
			C189.022,281.984,190.665,273.061,194.927,275.286z"/>
	</g>
</g>
</svg>
